<?xml version="1.0" encoding="UTF-8"?>
<!DOCTYPE svg PUBLIC "-//W3C//DTD SVG 1.1//EN" "http://www.w3.org/Graphics/SVG/1.1/DTD/svg11.dtd">
<svg version="1.2" width="300mm" height="62mm" viewBox="0 0 30000 6200" preserveAspectRatio="xMidYMid" fill-rule="evenodd" stroke-width="28.222" stroke-linejoin="round" xmlns="http://www.w3.org/2000/svg" xmlns:ooo="http://xml.openoffice.org/svg/export" xmlns:xlink="http://www.w3.org/1999/xlink" xmlns:presentation="http://sun.com/xmlns/staroffice/presentation" xmlns:smil="http://www.w3.org/2001/SMIL20/" xmlns:anim="urn:oasis:names:tc:opendocument:xmlns:animation:1.0" xml:space="preserve">
 <defs class="ClipPathGroup">
  <clipPath id="presentation_clip_path" clipPathUnits="userSpaceOnUse">
   <rect x="0" y="0" width="30000" height="6200"/>
  </clipPath>
  <clipPath id="presentation_clip_path_shrink" clipPathUnits="userSpaceOnUse">
   <rect x="30" y="6" width="29940" height="6188"/>
  </clipPath>
 </defs>
 <defs class="TextShapeIndex">
  <g ooo:slide="id1" ooo:id-list="id3"/>
 </defs>
 <defs class="EmbeddedBulletChars">
  <g id="bullet-char-template-57356" transform="scale(0.00048828125,-0.00048828125)">
   <path d="M 580,1141 L 1163,571 580,0 -4,571 580,1141 Z"/>
  </g>
  <g id="bullet-char-template-57354" transform="scale(0.00048828125,-0.00048828125)">
   <path d="M 8,1128 L 1137,1128 1137,0 8,0 8,1128 Z"/>
  </g>
  <g id="bullet-char-template-10146" transform="scale(0.00048828125,-0.00048828125)">
   <path d="M 174,0 L 602,739 174,1481 1456,739 174,0 Z M 1358,739 L 309,1346 659,739 1358,739 Z"/>
  </g>
  <g id="bullet-char-template-10132" transform="scale(0.00048828125,-0.00048828125)">
   <path d="M 2015,739 L 1276,0 717,0 1260,543 174,543 174,936 1260,936 717,1481 1274,1481 2015,739 Z"/>
  </g>
  <g id="bullet-char-template-10007" transform="scale(0.00048828125,-0.00048828125)">
   <path d="M 0,-2 C -7,14 -16,27 -25,37 L 356,567 C 262,823 215,952 215,954 215,979 228,992 255,992 264,992 276,990 289,987 310,991 331,999 354,1012 L 381,999 492,748 772,1049 836,1024 860,1049 C 881,1039 901,1025 922,1006 886,937 835,863 770,784 769,783 710,716 594,584 L 774,223 C 774,196 753,168 711,139 L 727,119 C 717,90 699,76 672,76 641,76 570,178 457,381 L 164,-76 C 142,-110 111,-127 72,-127 30,-127 9,-110 8,-76 1,-67 -2,-52 -2,-32 -2,-23 -1,-13 0,-2 Z"/>
  </g>
  <g id="bullet-char-template-10004" transform="scale(0.00048828125,-0.00048828125)">
   <path d="M 285,-33 C 182,-33 111,30 74,156 52,228 41,333 41,471 41,549 55,616 82,672 116,743 169,778 240,778 293,778 328,747 346,684 L 369,508 C 377,444 397,411 428,410 L 1163,1116 C 1174,1127 1196,1133 1229,1133 1271,1133 1292,1118 1292,1087 L 1292,965 C 1292,929 1282,901 1262,881 L 442,47 C 390,-6 338,-33 285,-33 Z"/>
  </g>
  <g id="bullet-char-template-9679" transform="scale(0.00048828125,-0.00048828125)">
   <path d="M 813,0 C 632,0 489,54 383,161 276,268 223,411 223,592 223,773 276,916 383,1023 489,1130 632,1184 813,1184 992,1184 1136,1130 1245,1023 1353,916 1407,772 1407,592 1407,412 1353,268 1245,161 1136,54 992,0 813,0 Z"/>
  </g>
  <g id="bullet-char-template-8226" transform="scale(0.00048828125,-0.00048828125)">
   <path d="M 346,457 C 273,457 209,483 155,535 101,586 74,649 74,723 74,796 101,859 155,911 209,963 273,989 346,989 419,989 480,963 531,910 582,859 608,796 608,723 608,648 583,586 532,535 482,483 420,457 346,457 Z"/>
  </g>
  <g id="bullet-char-template-8211" transform="scale(0.00048828125,-0.00048828125)">
   <path d="M -4,459 L 1135,459 1135,606 -4,606 -4,459 Z"/>
  </g>
  <g id="bullet-char-template-61548" transform="scale(0.00048828125,-0.00048828125)">
   <path d="M 173,740 C 173,903 231,1043 346,1159 462,1274 601,1332 765,1332 928,1332 1067,1274 1183,1159 1299,1043 1357,903 1357,740 1357,577 1299,437 1183,322 1067,206 928,148 765,148 601,148 462,206 346,322 231,437 173,577 173,740 Z"/>
  </g>
 </defs>
 <g>
  <g id="id2" class="Master_Slide">
   <g id="bg-id2" class="Background"/>
   <g id="bo-id2" class="BackgroundObjects"/>
  </g>
 </g>
 <g class="SlideGroup">
  <g>
   <g id="container-id1">
    <g id="id1" class="Slide" clip-path="url(#presentation_clip_path)">
     <g class="Page">
      <g class="Graphic">
       <g id="id3">
        <rect class="BoundingBox" stroke="none" fill="none" x="-250" y="-3000" width="30351" height="9200"/>
        <defs>
         <clipPath id="clip_path_1" clipPathUnits="userSpaceOnUse">
          <path d="M -238,-2990 L 30110,-2990 30110,6191 -238,6191 -238,-2990 Z"/>
         </clipPath>
        </defs>
        <g clip-path="url(#clip_path_1)">
         <path fill="rgb(1,1,1)" stroke="none" d="M 23,1211 L 842,793 1672,480 2507,262 3344,134 4179,87 5009,115 5831,210 6640,365 7432,572 8206,824 9680,1435 11034,2139 12238,2875 12794,3209 13343,3484 13883,3701 14414,3864 14932,3979 15439,4049 15932,4078 16411,4070 16873,4030 17319,3960 17746,3866 18154,3751 18906,3477 19566,3168 20183,2848 20825,2541 21162,2406 21513,2289 21880,2194 22267,2126 22675,2092 23108,2094 23567,2140 24055,2232 24575,2376 25130,2577 25722,2840 26353,3168 26967,3466 27247,3566 27511,3636 27758,3675 27989,3685 28204,3669 28404,3626 28590,3557 28761,3465 28920,3349 29065,3212 29199,3053 29319,2876 29529,2464 29697,1989 29830,1456 29929,876 30002,257 30080,-1061 30099,-2425 30099,-2898 30099,-2989 30099,-2997 30099,-2999 30099,-2999 30099,-2999 30099,-2988 30099,-2211 30099,1805 30099,8762 -249,8762 -249,1491 -249,1211 23,1211 -249,1211 23,1211 Z"/>
         <path fill="none" stroke="rgb(52,101,164)" d="M 23,1211 L 842,793 1672,480 2507,262 3344,134 4179,87 5009,115 5831,210 6640,365 7432,572 8206,824 9680,1435 11034,2139 12238,2875 12794,3209 13343,3484 13883,3701 14414,3864 14932,3979 15439,4049 15932,4078 16411,4070 16873,4030 17319,3960 17746,3866 18154,3751 18906,3477 19566,3168 20183,2848 20825,2541 21162,2406 21513,2289 21880,2194 22267,2126 22675,2092 23108,2094 23567,2140 24055,2232 24575,2376 25130,2577 25722,2840 26353,3168 26967,3466 27247,3566 27511,3636 27758,3675 27989,3685 28204,3669 28404,3626 28590,3557 28761,3465 28920,3349 29065,3212 29199,3053 29319,2876 29529,2464 29697,1989 29830,1456 29929,876 30002,257 30080,-1061 30099,-2425 30099,-2898 30099,-2989 30099,-2997 30099,-2999 30099,-2999 30099,-2999 30099,-2988 30099,-2211 30099,1805 30099,8762 -249,8762 -249,1491 -249,1211 23,1211 -249,1211 23,1211 Z"/>
        </g>
       </g>
      </g>
     </g>
    </g>
   </g>
  </g>
 </g>
</svg>